<svg width="32" height="32" xmlns="http://www.w3.org/2000/svg" fill="none">
 <title>sun_dark</title>
 <g id="Layer_1">
  <title>Layer 1</title>
  <path id="svg_5" d="m-31.60415,0.07146c-0.02175,0 -0.03937,0.01762 -0.03937,0.03937c0,0.02174 0.01762,0.03936 0.03937,0.03936c0.02173,0 0.03936,-0.01763 0.03936,-0.03936c0.00001,-0.02175 -0.01762,-0.03937 -0.03936,-0.03937zm0,0.06873c-0.01622,-0.00004 -0.02933,-0.01315 -0.02937,-0.02936c0.00004,-0.01622 0.01315,-0.02933 0.02937,-0.02937c0.01621,0.00004 0.02932,0.01316 0.02936,0.02937c-0.00004,0.01621 -0.01315,0.02932 -0.02936,0.02936zm0,-0.07137c0.00277,0 0.005,-0.00224 0.005,-0.00501l0,-0.02426c-0.00001,-0.00277 -0.00224,-0.005 -0.005,-0.005c-0.00277,0 -0.00501,0.00225 -0.005,0.00501l0,0.02425c0,0.00276 0.00224,0.005 0.005,0.005zm0.01607,0.00319c0.00063,0.00027 0.00128,0.00038 0.00191,0.00039c0.00197,0 0.00383,-0.00117 0.00463,-0.00309l0.00928,-0.02242c0.00105,-0.00256 -0.00016,-0.00548 -0.00271,-0.00653c-0.00256,-0.00106 -0.00548,0.00016 -0.00654,0.00271l-0.00928,0.02242c-0.00106,0.00255 0.00016,0.00548 0.00271,0.00653zm0.01363,0.00911c0.00098,0.00097 0.00226,0.00147 0.00354,0.00147s0.00256,-0.00049 0.00354,-0.00147l0.01715,-0.01717c0.00196,-0.00195 0.00195,-0.00512 0,-0.00708c-0.00196,-0.00195 -0.00513,-0.00195 -0.00708,0.00001l-0.01715,0.01716c-0.00196,0.00196 -0.00196,0.00512 0,0.00708zm0.00912,0.01362c0.00079,0.00193 0.00266,0.00309 0.00462,0.00309c0.00064,0 0.00129,-0.00013 0.00192,-0.00039l0.0224,-0.00929c0.00256,-0.00106 0.00377,-0.00399 0.00271,-0.00654s-0.00398,-0.00376 -0.00654,-0.0027l-0.02241,0.00929c-0.00255,0.00106 -0.00376,0.00399 -0.0027,0.00654zm0.03245,0.01106l-0.02426,0.00001c-0.00276,0 -0.005,0.00224 -0.00499,0.00501c0,0.00277 0.00224,0.005 0.00499,0.005l0.02426,-0.00001c0.00277,0 0.005,-0.00225 0.005,-0.005c0,-0.00277 -0.00224,-0.00501 -0.005,-0.005zm-0.00349,0.02764l-0.02241,-0.00927c-0.00256,-0.00106 -0.00549,0.00015 -0.00654,0.00271c-0.00106,0.00256 0.00016,0.00548 0.00271,0.00654l0.02241,0.00927c0.00063,0.00026 0.00128,0.00038 0.00192,0.00038c0.00197,0 0.00383,-0.00116 0.00463,-0.00309c0.00105,-0.00256 -0.00017,-0.00549 -0.00271,-0.00654zm-0.03097,0.00707c-0.00196,-0.00196 -0.00512,-0.00196 -0.00707,0.00001c-0.00196,0.00195 -0.00195,0.00511 0,0.00707l0.01717,0.01715c0.00098,0.00098 0.00225,0.00147 0.00353,0.00147s0.00257,-0.00049 0.00354,-0.00147c0.00196,-0.00196 0.00195,-0.00513 0,-0.00708l-0.01717,-0.01714zm-0.01416,0.01182c-0.00106,-0.00256 -0.00398,-0.00376 -0.00654,-0.00271c-0.00255,0.00106 -0.00376,0.00399 -0.0027,0.00654l0.0093,0.0224c0.0008,0.00193 0.00266,0.00309 0.00463,0.00309c0.00064,0 0.00129,-0.00012 0.00192,-0.00038c0.00256,-0.00106 0.00376,-0.00399 0.0027,-0.00655l-0.00931,-0.0224zm-0.02259,0.00052c-0.00277,0 -0.005,0.00224 -0.005,0.005l0.00002,0.02426c0,0.00277 0.00225,0.005 0.005,0.005c0.00277,0 0.005,-0.00224 0.00499,-0.005l-0.00002,-0.02426c0,-0.00275 -0.00225,-0.005 -0.005,-0.00499zm-0.01608,-0.00318c-0.00255,-0.00105 -0.00547,0.00016 -0.00653,0.00272l-0.00926,0.02242c-0.00105,0.00256 0.00017,0.00548 0.00272,0.00654c0.00063,0.00026 0.00127,0.00038 0.00191,0.00038c0.00196,0 0.00383,-0.00117 0.00462,-0.0031l0.00927,-0.02243c0.00106,-0.00255 -0.00017,-0.00547 -0.00272,-0.00653zm-0.01363,-0.00909c-0.00196,-0.00196 -0.00513,-0.00195 -0.00708,0.00001l-0.01713,0.01717c-0.00196,0.00196 -0.00195,0.00512 0.00001,0.00708c0.00098,0.00097 0.00225,0.00146 0.00353,0.00146c0.00129,0 0.00257,-0.00049 0.00354,-0.00147l0.01714,-0.01717c0.00195,-0.00196 0.00195,-0.00512 -0.00001,-0.00708zm-0.00912,-0.01361c-0.00107,-0.00255 -0.00399,-0.00376 -0.00654,-0.0027l-0.0224,0.00931c-0.00256,0.00106 -0.00376,0.00399 -0.0027,0.00654c0.0008,0.00193 0.00266,0.00308 0.00462,0.00308c0.00064,0 0.00129,-0.00012 0.00192,-0.00038l0.0224,-0.00931c0.00255,-0.00107 0.00376,-0.004 0.0027,-0.00654zm-0.00323,-0.01606c0,-0.00277 -0.00224,-0.005 -0.005,-0.005l-0.02426,0.00003c-0.00277,0 -0.00501,0.00224 -0.005,0.00501c0.00001,0.00276 0.00225,0.005 0.005,0.00499l0.02426,-0.00003c0.00276,0 0.005,-0.00225 0.00499,-0.005zm-0.02578,-0.02262l0.02243,0.00925c0.00063,0.00027 0.00127,0.00038 0.00191,0.00038c0.00197,0 0.00383,-0.00116 0.00463,-0.00309c0.00106,-0.00256 -0.00016,-0.00549 -0.00272,-0.00653l-0.02242,-0.00925c-0.00256,-0.00105 -0.00548,0.00016 -0.00653,0.00271c-0.00106,0.00256 0.00017,0.00547 0.00271,0.00653zm0.03097,-0.00709c0.00098,0.00097 0.00225,0.00146 0.00353,0.00146s0.00257,-0.00049 0.00355,-0.00148c0.00196,-0.00195 0.00195,-0.00512 -0.00002,-0.00707l-0.01717,-0.01712c-0.00195,-0.00195 -0.00513,-0.00194 -0.00707,0.00002c-0.00196,0.00195 -0.00195,0.00512 0.00001,0.00707l0.01718,0.01713zm0.01414,-0.01184c0.0008,0.00192 0.00266,0.00308 0.00462,0.00308c0.00064,0 0.00129,-0.00013 0.00192,-0.00039c0.00255,-0.00106 0.00377,-0.00399 0.0027,-0.00654l-0.00932,-0.0224c-0.00106,-0.00255 -0.00399,-0.00376 -0.00654,-0.0027c-0.00255,0.00107 -0.00376,0.004 -0.0027,0.00654l0.00932,0.0224z" fill="#444444"/>
  <path id="svg_8" d="m16.00081,9.54777c-3.51672,0 -6.36485,2.88742 -6.36485,6.45264c0,3.56276 2.84814,6.45182 6.36485,6.45182c3.51348,0 6.36324,-2.88906 6.36324,-6.45182c0.00081,-3.56522 -2.84814,-6.45264 -6.36324,-6.45264zm0,11.26609c-2.62258,-0.00656 -4.74231,-2.15552 -4.74878,-4.81264c0.00566,-2.65793 2.1262,-4.80772 4.74878,-4.81428c2.62096,0.00656 4.7407,2.15634 4.74636,4.81428c-0.00566,2.65711 -2.12539,4.80608 -4.74636,4.81264zm0,-11.69802c0.44707,0 0.80844,-0.36718 0.80844,-0.82041l0,-3.97583c-0.00162,-0.45323 -0.36218,-0.81959 -0.80844,-0.81959c-0.44707,0 -0.80925,0.368 -0.80844,0.82123l0,3.97501c0,0.45159 0.36137,0.81959 0.80844,0.81959zm2.59752,0.5229c0.10106,0.04344 0.20615,0.06229 0.30882,0.06311c0.31853,0 0.61846,-0.19096 0.74781,-0.50651l1.50047,-3.67422c0.16977,-0.41881 -0.02506,-0.89745 -0.43737,-1.07039c-0.41311,-0.17293 -0.88605,0.02541 -1.05744,0.4434l-1.49966,3.67504c-0.17058,0.41799 0.02506,0.89745 0.43737,1.06957zm2.203,1.49247c0.15765,0.159 0.36461,0.24014 0.57157,0.24014s0.41392,-0.08032 0.57157,-0.24014l2.77295,-2.81365c0.3161,-0.31964 0.31529,-0.83844 0,-1.15972c-0.31691,-0.31964 -0.82865,-0.31964 -1.14394,0.00164l-2.77214,2.81202c-0.3161,0.32046 -0.3161,0.83926 0,1.15972zm1.47379,2.23256c0.12773,0.31554 0.42928,0.50569 0.74619,0.50569c0.10267,0 0.20777,-0.02049 0.30963,-0.06393l3.62181,-1.52198c0.41311,-0.17293 0.60876,-0.65321 0.43737,-1.0712s-0.64352,-0.61633 -1.05663,-0.44258l-3.62262,1.52198c-0.4123,0.17375 -0.60714,0.65403 -0.43575,1.07202zm5.24597,1.81211l-3.92175,0.00082c-0.44626,0 -0.80844,0.36718 -0.80682,0.82041c0,0.45323 0.36137,0.81877 0.80682,0.81877l3.92255,-0.00164c0.44707,0 0.80763,-0.368 0.80763,-0.81959c0,-0.45323 -0.36218,-0.82041 -0.80844,-0.81877zm-0.56429,4.5307l-3.62343,-1.51952c-0.41392,-0.17375 -0.88686,0.02459 -1.05663,0.4434c-0.17058,0.41881 0.02506,0.89827 0.43737,1.07202l3.62343,1.51952c0.10186,0.0418 0.20696,0.06147 0.30963,0.06147c0.31772,0 0.61846,-0.19015 0.74781,-0.50569c0.16977,-0.41881 -0.02668,-0.89909 -0.43817,-1.0712zm-5.00748,1.15808c-0.3161,-0.32046 -0.82703,-0.32046 -1.14314,0.00082c-0.3161,0.31964 -0.31529,0.83762 0,1.15808l2.77619,2.81038c0.15765,0.15982 0.3638,0.24014 0.57076,0.24014s0.41473,-0.08032 0.57238,-0.24014c0.3161,-0.32128 0.31448,-0.84008 0,-1.15972l-2.77619,-2.80956zm-2.2887,1.93669c-0.17058,-0.41881 -0.64352,-0.61633 -1.05663,-0.4434c-0.4123,0.17375 -0.60795,0.65321 -0.43656,1.07202l1.5037,3.67177c0.12854,0.31554 0.42928,0.50569 0.74781,0.50569c0.10348,0 0.20858,-0.01967 0.30963,-0.06229c0.41311,-0.17293 0.60795,-0.65321 0.43656,-1.07284l-1.50451,-3.67095zm-3.65173,0.08442c-0.44707,0 -0.80844,0.36718 -0.80844,0.81959l0.00323,3.97583c0,0.45323 0.36299,0.81877 0.80844,0.81877c0.44707,0 0.80844,-0.36718 0.80682,-0.81959l-0.00243,-3.97665c0,-0.45077 -0.36299,-0.81877 -0.80763,-0.81795zm-2.59995,-0.52126c-0.4123,-0.17211 -0.88443,0.02541 -1.05582,0.44504l-1.49723,3.67422c-0.16977,0.41881 0.02668,0.89827 0.43898,1.0712c0.10106,0.04262 0.20534,0.06229 0.30882,0.06229c0.31691,0 0.61846,-0.19178 0.747,-0.50733l1.49804,-3.67586c0.17058,-0.41799 -0.02668,-0.89663 -0.43979,-1.06957zm-2.20381,-1.4892c-0.31691,-0.32046 -0.82865,-0.31882 -1.14394,0.00164l-2.76972,2.81365c-0.3161,0.32128 -0.31448,0.83844 0.00162,1.15972c0.15765,0.159 0.3638,0.23932 0.57076,0.23932c0.20777,0 0.41473,-0.08032 0.57238,-0.24014l2.77053,-2.81447c0.31448,-0.32046 0.31448,-0.83926 -0.00162,-1.15972zm-1.4746,-2.23011c-0.1722,-0.41717 -0.64433,-0.61551 -1.05663,-0.44258l-3.62101,1.52526c-0.41311,0.17375 -0.60795,0.65403 -0.43656,1.07202c0.12935,0.31554 0.42928,0.50487 0.747,0.50487c0.10267,0 0.20858,-0.01967 0.30963,-0.06229l3.62101,-1.52526c0.4115,-0.17539 0.60714,-0.65485 0.43656,-1.07202zm-0.52225,-2.63253c0,-0.45323 -0.36137,-0.81877 -0.80844,-0.81877l-3.92175,0.00492c-0.44707,0 -0.80925,0.36718 -0.80763,0.82041c0.00081,0.45159 0.36299,0.81959 0.80844,0.81795l3.92255,-0.00492c0.44626,0 0.80844,-0.36882 0.80682,-0.81959zm-4.16832,-3.70701l3.62586,1.51624c0.10106,0.04344 0.20534,0.06229 0.30802,0.06229c0.31772,0 0.61927,-0.19015 0.74781,-0.50651c0.17139,-0.41881 -0.02587,-0.89909 -0.43979,-1.07039l-3.62424,-1.51624c-0.41311,-0.17211 -0.88524,0.02623 -1.05582,0.44422c-0.17139,0.41881 0.02668,0.89663 0.43817,1.07039zm5.00667,-1.16218c0.15765,0.15818 0.36299,0.2385 0.56995,0.2385s0.41473,-0.08032 0.57318,-0.24178c0.3161,-0.31882 0.31448,-0.83844 -0.00323,-1.1589l-2.77619,-2.80628c-0.31529,-0.31964 -0.82865,-0.318 -1.14314,0.00246c-0.3161,0.31964 -0.31448,0.83926 0.00162,1.1589l2.7778,2.8071zm2.28546,-1.93997c0.12935,0.31472 0.43009,0.50405 0.74619,0.50405c0.10348,0 0.20858,-0.02049 0.31044,-0.06311c0.4123,-0.17375 0.60876,-0.65403 0.43656,-1.0712l-1.50693,-3.67095c-0.17139,-0.41799 -0.64514,-0.61551 -1.05744,-0.44176c-0.4123,0.17457 -0.60714,0.65485 -0.43575,1.07202l1.50693,3.67095z" fill="#444444"/>
 </g>
</svg>